<svg width="100" height="100" viewBox="0 0 100 100" fill="none" xmlns="http://www.w3.org/2000/svg">
<path d="M50 0C77.6143 0 99.9999 22.3857 100 50C100 77.6144 77.6144 100 50 100C22.3857 99.9999 0 77.6143 0 50C0.000111342 22.3858 22.3858 0.000111327 50 0ZM62.8477 27.1436C61.7415 27.145 60.694 27.3974 59.7598 27.8477C59.0312 28.1987 58.3712 28.6699 57.8057 29.2354C57.5633 29.4777 57.3385 29.7377 57.1328 30.0127C57.0642 30.1044 56.9978 30.1979 56.9336 30.293C56.7411 30.5779 56.5684 30.8773 56.418 31.1895C56.2174 31.6058 56.0559 32.0446 55.9385 32.501C55.8798 32.7292 55.832 32.9618 55.7959 33.1982C55.7597 33.4348 55.736 33.6753 55.7236 33.9189C55.7175 34.0406 55.7139 34.163 55.7139 34.2861V65.7148C55.7139 65.8383 55.7174 65.9611 55.7236 66.083C55.736 66.3263 55.7598 66.5665 55.7959 66.8027C55.832 67.0392 55.8798 67.2718 55.9385 67.5C56.144 68.2989 56.4842 69.0439 56.9336 69.709C57.2544 70.1838 57.6311 70.6178 58.0537 71.002C58.5611 71.4632 59.1352 71.8523 59.7598 72.1533C60.1761 72.354 60.6149 72.5153 61.0713 72.6328C61.2995 72.6915 61.5321 72.7392 61.7686 72.7754C61.8868 72.7935 62.0059 72.8091 62.126 72.8213C62.3661 72.8457 62.6098 72.8584 62.8564 72.8584H67.1426C67.2628 72.8584 67.3822 72.8545 67.501 72.8486C71.2795 72.662 74.2861 69.5396 74.2861 65.7148V34.2861C74.2861 30.4647 71.2846 27.3438 67.5107 27.1523C67.3888 27.1462 67.266 27.1436 67.1426 27.1436H62.8477ZM34.2861 27.1436C30.3413 27.1436 27.1436 30.3413 27.1436 34.2861V65.7148C27.1436 69.6597 30.3413 72.8573 34.2861 72.8574H38.5723C42.5171 72.8573 45.7148 69.6597 45.7148 65.7148V34.2861C45.7148 30.3414 42.517 27.1437 38.5723 27.1436H34.2861Z" fill="#E8E19A"/>
</svg>
