<svg width="569" height="242" viewBox="0 0 569 242" fill="none" xmlns="http://www.w3.org/2000/svg">
<circle cx="21" cy="21" r="21" fill="#E8E19A"/>
<path d="M36 175.25C35.9999 179.668 32.4182 183.25 28 183.25H14C9.58177 183.25 6.00007 179.668 6 175.25V51.0877C6 49.5638 7.64747 48.5843 9.05341 49.1722C12.7301 50.7096 16.7657 51.5596 21 51.5596C25.2343 51.5596 29.2699 50.7096 32.9466 49.1722C34.3525 48.5843 36 49.5638 36 51.0877V175.25Z" fill="#E8E19A"/>
<path d="M77 69.5586C81.4183 69.5586 85 73.1403 85 77.5586V89.4453C89.7654 87.8887 94.5774 86.8662 99 86.8662C106.858 86.8662 115.946 90.0917 123.815 93.8115C126.462 95.0626 129.534 95.0625 132.181 93.8115C140.051 90.0914 149.141 86.8662 157 86.8662C170.351 86.8662 187.254 96.1753 195.696 101.404C199.074 103.496 201 107.228 201 111.201C201 111.297 200.998 111.393 200.996 111.488C200.977 112.28 201 113.074 201 113.866V175.866C201 180.284 197.418 183.866 193 183.866H179C174.582 183.866 171 180.284 171 175.866V125.972C171 122.078 168.512 118.536 164.701 117.737C162.063 117.185 159.471 116.866 157 116.866C154.529 116.866 151.937 117.185 149.299 117.737C145.488 118.536 143 122.078 143 125.972V175.866C143 180.284 139.418 183.866 135 183.866H121C116.582 183.866 113 180.284 113 175.866V125.973C113 122.079 110.512 118.537 106.701 117.738C104.063 117.185 101.471 116.866 99 116.866C96.5292 116.866 93.9368 117.185 91.2988 117.738C87.4877 118.537 85.0002 122.079 85 125.973V175.559C85 179.977 81.4183 183.559 77 183.559H63C58.5817 183.559 55 179.977 55 175.559V104.559C55 104.22 55.0226 103.886 55.0635 103.559C55.0226 103.231 55 102.897 55 102.559V77.5586C55 73.1403 58.5817 69.5586 63 69.5586H77Z" fill="#E8E19A"/>
<path d="M402 182.866C398.913 182.866 396.237 181.117 394.903 178.557C388.64 180.942 381.594 182.559 374 182.559C345 182.559 332 176.5 326.5 165.5C325.901 164.301 325.531 163.141 325.364 162.027C324.913 159.013 324.615 155.746 324.137 152.736C324.047 152.171 324 151.591 324 151V79C324 72.925 328.925 68 335 68H343C349.075 68 354 72.925 354 79V147.855C354 148.348 354.319 148.781 354.782 148.95C360.706 151.119 367.2 152.559 374 152.559C380.834 152.559 387.361 151.105 393.309 148.918C393.741 148.759 394 148.326 394 147.866V76.8662C394 72.4481 397.582 68.8662 402 68.8662H416C420.418 68.8662 424 72.4481 424 76.8662V147.866C424 148.379 423.995 148.897 423.987 149.417C423.996 149.566 424 149.715 424 149.866V174.866C424 179.284 420.418 182.866 416 182.866H402Z" fill="#E8E19A"/>
<rect x="444" width="30" height="183" rx="8" fill="#E8E19A"/>
<path d="M549.001 2.00684L561.177 2.53125C565.591 2.72155 569.015 6.45418 568.825 10.8682L568.222 24.8555C568.031 29.2696 564.299 32.6942 559.885 32.5039L550.414 32.0947C550.115 32.1137 549.813 32.1257 549.509 32.127C543.179 32.1524 537.395 35.4117 532.425 41.1953C527.259 47.2066 524.588 54.1564 524.109 57.5342C523.398 62.5496 526.869 72.465 540.242 81.9375C549.535 88.5203 556.573 97.2296 561.079 106.19C565.475 114.932 568.054 125.137 566.692 134.741C564.451 150.549 550.171 178.888 515.733 182.346C514.845 182.435 513.968 182.444 513.107 182.38L502.162 182.204C497.745 182.133 494.221 178.495 494.292 174.077L494.518 160.078C494.589 155.661 498.227 152.137 502.645 152.208L513.673 152.385C529.341 150.34 536.015 137.4 536.989 130.53C537.245 128.728 536.843 124.771 534.277 119.669C531.822 114.786 527.915 109.969 522.901 106.417C505.319 93.9627 491.417 74.4123 494.407 53.3223C495.779 43.6473 501.206 31.4945 509.673 21.6426C517.919 12.0478 530.444 3.0997 546.869 2.2002C547.552 2.04407 548.267 1.9752 549.001 2.00684Z" fill="#E8E19A"/>
<path d="M243 69.8662C247.418 69.8662 251 73.4479 251 77.8662V88H278C278.088 88 278.176 88.0019 278.263 88.0049C278.71 88.0203 279.158 88.0227 279.605 88.0059C279.715 88.0018 279.825 88 279.935 88C282.437 88.0001 284.847 88.9381 286.445 90.8633C291.415 96.8481 301.724 112.132 301.724 135.946C301.724 163.521 290.842 177.084 286.049 181.72C285 182.734 283.661 183.31 282.235 183.525C281.737 183.601 281.241 183.696 280.749 183.807C280.186 183.933 279.601 184 279 184H251V233.866C251 238.284 247.418 241.866 243 241.866H229C224.582 241.866 221 238.284 221 233.866V77.8662C221 73.4479 224.582 69.8662 229 69.8662H243ZM251 154H265.171C267.977 154 270.433 152.058 270.874 149.286C271.519 145.231 271.896 140.79 271.896 135.946C271.896 131.161 271.492 126.732 270.807 122.66C270.344 119.913 267.9 118 265.114 118H251V154Z" fill="#E8E19A"/>
</svg>
