<svg width="281" height="218" viewBox="0 0 281 218" fill="none" xmlns="http://www.w3.org/2000/svg">
<circle cx="54.1772" cy="95" r="21" fill="#E8E19A"/>
<circle cx="137.177" cy="75" r="21" fill="#E8E19A"/>
<circle cx="220.177" cy="54" r="21" fill="#E8E19A"/>
<path d="M69.1772 209.019C69.1772 213.437 65.5955 217.019 61.1772 217.019H47.1772C42.759 217.019 39.1772 213.437 39.1772 209.019V125.527C39.1772 124.003 40.8247 123.024 42.2307 123.612C45.9073 125.149 49.9429 125.999 54.1772 125.999C58.4116 125.999 62.4472 125.149 66.1238 123.612C67.5298 123.024 69.1772 124.003 69.1772 125.527V209.019Z" fill="#E8E19A"/>
<path d="M152.177 208.901C152.177 213.32 148.596 216.901 144.177 216.901H130.177C125.759 216.901 122.177 213.32 122.177 208.901V105.449C122.177 103.925 123.825 102.946 125.231 103.534C128.907 105.071 132.943 105.921 137.177 105.921C141.412 105.921 145.447 105.071 149.124 103.534C150.53 102.946 152.177 103.925 152.177 105.449V208.901Z" fill="#E8E19A"/>
<path d="M192.002 0C204.926 0.000108907 223.149 3.18704 239.277 9.7959C254.114 15.8759 274.48 27.9022 279.506 49.9746C281.959 60.7444 275.216 71.4634 264.446 73.916C260.515 74.8111 256.59 74.481 253.072 73.1774C251.983 72.7737 251.608 71.4741 252.14 70.4408C254.675 65.5124 256.108 59.9238 256.108 54C256.108 34.1178 239.99 18 220.108 18C205.476 18.0003 192.885 26.7301 187.254 39.2646C186.959 39.9213 186.353 40.3875 185.641 40.4971C178.415 41.6102 171.088 44.5614 164.524 49.0445C163.698 49.6087 162.585 49.5095 161.858 48.8228C155.41 42.734 146.715 39.0001 137.147 39C117.265 39.0002 101.146 55.1178 101.146 75C101.146 79.4579 101.956 83.7267 103.438 87.6668C103.872 88.8209 103.257 90.1332 102.06 90.4268C98.7204 91.2454 95.3653 91.8837 92.0389 92.3196C90.9134 92.4671 89.9166 91.6199 89.7759 90.4936C87.5592 72.7374 72.4149 58.9981 54.0581 58.998C42.0482 58.998 31.4121 64.8791 24.8719 73.9183C24.2043 74.8409 22.9172 75.1017 22.004 74.4213C13.4532 68.0507 5.7817 59.4143 1.33154 47.8115C-2.62393 37.4984 2.53011 25.9311 12.8433 21.9756C23.1563 18.0204 34.7238 23.1743 38.6792 33.4873C40.6639 38.6617 45.9568 43.7006 55.4702 47.6357C64.8023 51.4958 75.2824 53 82.0063 53C87.6862 52.9999 95.5338 51.3458 103.424 47.8369C111.331 44.3207 117.673 39.6599 121.415 35.0039C138.394 13.877 164.797 0 192.002 0Z" fill="#E8E19A"/>
<path d="M235.177 208.691C235.177 213.11 231.596 216.691 227.177 216.691H213.177C208.759 216.691 205.177 213.11 205.177 208.691V84.5292C205.177 83.0052 206.825 82.0257 208.231 82.6136C211.907 84.1511 215.943 85.001 220.177 85.001C224.412 85.001 228.447 84.1511 232.124 82.6136C233.53 82.0257 235.177 83.0053 235.177 84.5292V208.691Z" fill="#E8E19A"/>
</svg>
