<svg width="109" height="109" viewBox="0 0 109 109" fill="none" xmlns="http://www.w3.org/2000/svg">
<path d="M108.927 43.4975C108.927 41.7263 107.491 40.2904 105.72 40.2902C103.948 40.2901 102.513 41.7257 102.513 43.4969L105.72 43.4972L108.927 43.4975ZM59.4895 84.464L59.4868 81.257L59.4895 84.464ZM2.12384 82.2139C0.871547 83.4663 0.871724 85.4969 2.12424 86.7493L22.5351 107.158C23.7876 108.411 25.8182 108.411 27.0705 107.158C28.3228 105.906 28.3226 103.875 27.0701 102.623L8.92707 84.4816L27.0669 66.3402C28.3192 65.0878 28.319 63.0573 27.0665 61.8049C25.814 60.5525 23.7834 60.5525 22.5311 61.8049L2.12384 82.2139ZM105.72 43.4972L102.513 43.4969C102.513 65.3793 96.8544 74.0641 89.7509 77.8837C86.0023 79.8993 81.4743 80.7883 76.2513 81.1307C70.9706 81.4769 65.4452 81.2525 59.4868 81.257L59.4895 84.464L59.4923 87.671C65.0876 87.6667 71.1177 87.8951 76.6715 87.531C82.283 87.1631 87.8683 86.1786 92.7888 83.5329C103.023 78.0297 108.927 66.2399 108.927 43.4975L105.72 43.4972ZM59.4895 84.464L59.4868 81.257C47.934 81.2658 34.1603 81.2702 23.2744 81.2724C17.8316 81.2735 13.1108 81.2741 9.75073 81.2744C8.0707 81.2745 6.73086 81.2746 5.81103 81.2746C5.35112 81.2746 4.99621 81.2746 4.75629 81.2746C4.63632 81.2746 4.5451 81.2746 4.48388 81.2746C4.45327 81.2746 4.43015 81.2746 4.41469 81.2746C4.40696 81.2746 4.40115 81.2746 4.39727 81.2746C4.39532 81.2746 4.39387 81.2746 4.39289 81.2746C4.39241 81.2746 4.39204 81.2746 4.3918 81.2746C4.39156 81.2746 4.39143 81.2746 4.39171 84.4816C4.392 87.6886 4.39212 87.6886 4.39236 87.6886C4.39261 87.6886 4.39297 87.6886 4.39346 87.6886C4.39444 87.6886 4.3959 87.6886 4.39784 87.6886C4.40173 87.6886 4.40755 87.6886 4.41528 87.6886C4.43075 87.6886 4.45388 87.6886 4.4845 87.6886C4.54574 87.6886 4.63698 87.6886 4.75696 87.6886C4.99693 87.6886 5.35188 87.6886 5.81184 87.6886C6.73175 87.6885 8.07169 87.6885 9.75182 87.6883C13.1121 87.688 17.8331 87.6875 23.2763 87.6864C34.1625 87.6842 47.9377 87.6798 59.4923 87.671L59.4895 84.464Z" fill="#E8E19A"/>
<path d="M5.31482e-05 64.5728C-0.000668923 66.344 1.43456 67.7804 3.20572 67.7811C4.97689 67.7818 6.41329 66.3466 6.41401 64.5754L3.20703 64.5741L5.31482e-05 64.5728ZM49.4538 23.6221L49.4552 26.8291L49.4538 23.6221ZM106.819 25.8905C108.071 24.6385 108.072 22.608 106.82 21.3552L86.4175 0.939548C85.1655 -0.313256 83.1349 -0.313906 81.8821 0.938096C80.6293 2.1901 80.6287 4.22064 81.8807 5.47345L100.016 23.6207L81.8691 41.7563C80.6163 43.0083 80.6156 45.0388 81.8676 46.2916C83.1196 47.5444 85.1502 47.5451 86.403 46.2931L106.819 25.8905ZM3.20703 64.5741L6.41401 64.5754C6.42293 42.693 12.0847 34.01 19.1898 30.1927C22.9392 28.1783 27.4676 27.2907 32.6907 26.95C37.9715 26.6055 43.4968 26.8317 49.4552 26.8291L49.4538 23.6221L49.4524 20.4151C43.8571 20.4176 37.827 20.1873 32.2731 20.5496C26.6614 20.9157 21.0757 21.8984 16.1542 24.5426C5.91729 30.0425 0.00932482 41.8304 5.31482e-05 64.5728L3.20703 64.5741ZM49.4538 23.6221L49.4552 26.8291C61.008 26.824 74.7817 26.824 85.6676 26.8253C91.1105 26.8259 95.8312 26.8269 99.1913 26.8277C100.871 26.8281 102.211 26.8284 103.131 26.8287C103.591 26.8288 103.946 26.8289 104.186 26.829C104.306 26.829 104.397 26.829 104.458 26.8291C104.489 26.8291 104.512 26.8291 104.527 26.8291C104.535 26.8291 104.541 26.8291 104.545 26.8291C104.547 26.8291 104.548 26.8291 104.549 26.8291C104.55 26.8291 104.55 26.8291 104.55 26.8291C104.55 26.8291 104.551 26.8291 104.552 23.6221C104.553 20.4151 104.553 20.4151 104.552 20.4151C104.552 20.4151 104.552 20.4151 104.551 20.4151C104.55 20.4151 104.549 20.4151 104.547 20.4151C104.543 20.4151 104.537 20.4151 104.529 20.4151C104.514 20.4151 104.491 20.4151 104.46 20.4151C104.399 20.4151 104.308 20.4151 104.188 20.415C103.948 20.415 103.593 20.4148 103.133 20.4147C102.213 20.4145 100.873 20.4141 99.1928 20.4137C95.8326 20.4129 91.1115 20.4119 85.6684 20.4113C74.7822 20.41 61.007 20.41 49.4524 20.4151L49.4538 23.6221Z" fill="#E8E19A"/>
</svg>
