<svg width="109" height="109" viewBox="0 0 109 109" fill="none" xmlns="http://www.w3.org/2000/svg">
<path d="M108.928 43.4975C108.928 41.7263 107.492 40.2904 105.721 40.2902C103.949 40.2901 102.514 41.7258 102.514 43.4969L105.721 43.4972L108.928 43.4975ZM59.4902 84.464L59.4875 81.257L59.4902 84.464ZM2.12412 82.2139C0.871829 83.4663 0.872007 85.4969 2.12452 86.7493L22.5354 107.158C23.7879 108.411 25.8185 108.411 27.0707 107.158C28.323 105.906 28.3229 103.875 27.0703 102.623L8.92735 84.4816L27.0672 66.3402C28.3195 65.0878 28.3193 63.0573 27.0668 61.8049C25.8143 60.5525 23.7837 60.5525 22.5314 61.8049L2.12412 82.2139ZM105.721 43.4972L102.514 43.4969C102.514 65.3793 96.8554 74.0641 89.7518 77.8837C86.0031 79.8993 81.4751 80.7883 76.2521 81.1307C70.9714 81.4769 65.4459 81.2525 59.4875 81.257L59.4902 84.464L59.4929 87.671C65.0883 87.6667 71.1185 87.8951 76.6722 87.531C82.2838 87.1631 87.8691 86.1786 92.7897 83.5329C103.024 78.0297 108.928 66.2399 108.928 43.4975L105.721 43.4972ZM59.4902 84.464L59.4875 81.257C47.9346 81.2658 34.1608 81.2702 23.2748 81.2724C17.8319 81.2735 13.1111 81.2741 9.75105 81.2744C8.07101 81.2745 6.73116 81.2746 5.81133 81.2746C5.35141 81.2746 4.9965 81.2746 4.75657 81.2746C4.63661 81.2746 4.54539 81.2746 4.48416 81.2746C4.45355 81.2746 4.43044 81.2746 4.41498 81.2746C4.40725 81.2746 4.40143 81.2746 4.39755 81.2746C4.39561 81.2746 4.39415 81.2746 4.39317 81.2746C4.39269 81.2746 4.39232 81.2746 4.39208 81.2746C4.39184 81.2746 4.39172 81.2746 4.392 84.4816C4.39228 87.6886 4.3924 87.6886 4.39265 87.6886C4.39289 87.6886 4.39326 87.6886 4.39374 87.6886C4.39472 87.6886 4.39618 87.6886 4.39812 87.6886C4.40201 87.6886 4.40783 87.6886 4.41557 87.6886C4.43104 87.6886 4.45416 87.6886 4.48478 87.6886C4.54603 87.6886 4.63726 87.6886 4.75725 87.6886C4.99721 87.6886 5.35217 87.6886 5.81213 87.6886C6.73205 87.6885 8.072 87.6885 9.75214 87.6883C13.1124 87.688 17.8335 87.6875 23.2767 87.6864C34.163 87.6842 47.9382 87.6798 59.4929 87.671L59.4902 84.464Z" fill="white"/>
<path d="M5.31482e-05 64.5728C-0.000668928 66.3439 1.43456 67.7803 3.20572 67.7811C4.97689 67.7818 6.41329 66.3465 6.41401 64.5754L3.20703 64.5741L5.31482e-05 64.5728ZM49.4541 23.6221L49.4555 26.8291L49.4541 23.6221ZM106.819 25.8905C108.072 24.6385 108.073 22.608 106.821 21.3552L86.4182 0.939548C85.1662 -0.313256 83.1356 -0.313906 81.8828 0.938096C80.63 2.1901 80.6294 4.22064 81.8814 5.47345L100.017 23.6207L81.8697 41.7563C80.6169 43.0083 80.6163 45.0388 81.8683 46.2916C83.1203 47.5444 85.1508 47.5451 86.4036 46.2931L106.819 25.8905ZM3.20703 64.5741L6.41401 64.5754C6.42293 42.693 12.0847 34.01 19.1899 30.1927C22.9393 28.1783 27.4677 27.2907 32.6909 26.95C37.9717 26.6055 43.4971 26.8317 49.4555 26.8291L49.4541 23.6221L49.4527 20.4151C43.8574 20.4176 37.8272 20.1873 32.2733 20.5496C26.6616 20.9157 21.0759 21.8984 16.1543 24.5426C5.91734 30.0425 0.00932489 41.8303 5.31482e-05 64.5728L3.20703 64.5741ZM49.4541 23.6221L49.4555 26.8291C61.0084 26.824 74.7822 26.824 85.6682 26.8253C91.1111 26.8259 95.8319 26.8269 99.192 26.8277C100.872 26.8281 102.212 26.8284 103.132 26.8287C103.592 26.8288 103.947 26.8289 104.186 26.829C104.306 26.829 104.398 26.829 104.459 26.8291C104.489 26.8291 104.513 26.8291 104.528 26.8291C104.536 26.8291 104.542 26.8291 104.545 26.8291C104.547 26.8291 104.549 26.8291 104.55 26.8291C104.55 26.8291 104.551 26.8291 104.551 26.8291C104.551 26.8291 104.551 26.8291 104.552 23.6221C104.553 20.4151 104.553 20.4151 104.553 20.4151C104.553 20.4151 104.552 20.4151 104.552 20.4151C104.551 20.4151 104.549 20.4151 104.547 20.4151C104.544 20.4151 104.538 20.4151 104.53 20.4151C104.515 20.4151 104.491 20.4151 104.461 20.4151C104.4 20.4151 104.308 20.4151 104.188 20.415C103.948 20.415 103.593 20.4148 103.133 20.4147C102.214 20.4145 100.874 20.4141 99.1935 20.4137C95.8332 20.4129 91.1121 20.4119 85.6689 20.4113C74.7826 20.41 61.0074 20.41 49.4527 20.4151L49.4541 23.6221Z" fill="white"/>
</svg>
