<svg width="125" height="105" viewBox="0 0 125 105" fill="none" xmlns="http://www.w3.org/2000/svg">
<path d="M57.2068 53.1162L54.5267 51.355L57.2068 53.1162ZM123.474 25.8839C124.727 24.6315 124.727 22.6009 123.474 21.3485L103.065 0.939449C101.813 -0.312954 99.7824 -0.312954 98.53 0.939449C97.2776 2.19185 97.2776 4.2224 98.53 5.4748L116.671 23.6162L98.53 41.7576C97.2776 43.01 97.2776 45.0406 98.53 46.293C99.7824 47.5454 101.813 47.5454 103.065 46.293L123.474 25.8839ZM3.20703 81.9092C1.43587 81.9092 5.28817e-05 83.345 5.28817e-05 85.1162C5.28817e-05 86.8874 1.43587 88.3232 3.20703 88.3232L3.20703 85.1162L3.20703 81.9092ZM57.2068 53.1162L59.8869 54.8774C65.3448 46.5717 73.1142 39.5086 81.1544 34.5303C89.2561 29.5141 97.2888 26.8232 103.207 26.8232V23.6162V20.4092C95.65 20.4092 86.4327 23.7184 77.778 29.0771C69.0619 34.4738 60.5686 42.1607 54.5267 51.355L57.2068 53.1162ZM103.207 23.6162V26.8232L121.207 26.8232V23.6162V20.4092L103.207 20.4092V23.6162ZM3.20703 85.1162L3.20703 88.3232C21.6427 88.3232 33.0434 84.6049 41.3488 78.2214C49.4579 71.9888 54.3182 63.3516 59.8869 54.8774L57.2068 53.1162L54.5267 51.355C48.5955 60.3808 44.4559 67.7437 37.4401 73.136C30.6206 78.3775 20.7713 81.9092 3.20703 81.9092L3.20703 85.1162Z" fill="#E8E19A"/>
<path d="M57.2068 51.6162L54.5267 53.3774L57.2068 51.6162ZM123.474 78.8485C124.727 80.1009 124.727 82.1315 123.474 83.3839L103.065 103.793C101.813 105.045 99.7824 105.045 98.53 103.793C97.2776 102.541 97.2776 100.51 98.53 99.2576L116.671 81.1162L98.53 62.9748C97.2776 61.7224 97.2776 59.6919 98.53 58.4394C99.7824 57.187 101.813 57.187 103.065 58.4394L123.474 78.8485ZM3.20703 22.8232C1.43587 22.8232 5.28817e-05 21.3874 5.28817e-05 19.6162C5.28817e-05 17.845 1.43587 16.4092 3.20703 16.4092L3.20703 19.6162L3.20703 22.8232ZM57.2068 51.6162L59.8869 49.855C65.3448 58.1607 73.1142 65.2238 81.1544 70.2021C89.2561 75.2184 97.2888 77.9092 103.207 77.9092V81.1162V84.3232C95.65 84.3232 86.4327 81.0141 77.778 75.6553C69.0619 70.2586 60.5686 62.5717 54.5267 53.3774L57.2068 51.6162ZM103.207 81.1162V77.9092H121.207V81.1162V84.3232H103.207V81.1162ZM3.20703 19.6162L3.20703 16.4092C21.6427 16.4092 33.0434 20.1275 41.3488 26.511C49.4579 32.7437 54.3182 41.3808 59.8869 49.855L57.2068 51.6162L54.5267 53.3774C48.5955 44.3516 44.4559 36.9888 37.4401 31.5964C30.6206 26.3549 20.7713 22.8232 3.20703 22.8232L3.20703 19.6162Z" fill="#E8E19A"/>
</svg>
