<svg width="116" height="93" viewBox="0 0 116 93" fill="none" xmlns="http://www.w3.org/2000/svg">
<path d="M111.172 7.81348L7.64258 87.8135" stroke="#E8E19A" stroke-width="9.41177" stroke-linecap="round"/>
<path d="M52.5186 7C57.5439 4.31109 63.6218 7.95197 63.6221 13.6514V72.0459C63.6221 77.7455 57.544 81.3862 52.5186 78.6973L22.0527 62.3955H11.3164C7.14996 62.3955 3.77148 59.018 3.77148 54.8516V30.8457C3.77167 26.6794 7.15007 23.3018 11.3164 23.3018H22.0527L52.5186 7Z" stroke="#E8E19A" stroke-width="7.54402"/>
<path d="M79.7236 25.4629C83.7268 32.3966 85.0299 37.2596 85.0299 45.2659C85.0299 53.2724 83.7268 58.1353 79.7236 65.0691" stroke="#E8E19A" stroke-width="7.54402" stroke-linecap="round"/>
<path d="M91.04 3.77246C102.1 16.7732 106.128 27.7242 106.128 44.793C106.128 61.8618 102.1 72.8129 91.04 85.8137" stroke="#E8E19A" stroke-width="7.54402" stroke-linecap="round"/>
</svg>
