<svg width="118" height="118" viewBox="0 0 118 118" fill="none" xmlns="http://www.w3.org/2000/svg">
<path d="M59 0C91.5848 0 118 26.4152 118 59C118 91.5848 91.5848 118 59 118C26.4152 118 0 91.5848 0 59C0 26.4152 26.4152 0 59 0ZM81.3994 97.127C79.5256 97.127 78.007 98.6458 78.0068 100.52L78.0059 100.619C78.0061 102.493 79.5258 104.012 81.3994 104.012C83.273 104.012 84.7928 102.493 84.793 100.619L84.792 100.52C84.7919 98.6457 83.2732 97.1271 81.3994 97.127ZM109.233 59.9707C107.397 59.5981 105.606 60.7846 105.233 62.6211C103.638 70.4855 102.067 74.6671 98.4561 80.8125C94.9683 86.7477 92.5735 89.4243 87.916 92.7744C86.3948 93.8686 86.0484 95.9895 87.1426 97.5107C88.2367 99.0317 90.3568 99.378 91.8779 98.2842C97.4151 94.3014 100.416 90.8716 104.307 84.251C108.337 77.392 110.155 72.4915 111.884 63.9707C112.256 62.1343 111.07 60.3434 109.233 59.9707ZM59 34.415C45.423 34.415 34.416 45.422 34.416 58.999C34.4161 72.5759 45.4231 83.582 59 83.582C72.5768 83.5819 83.5829 72.5759 83.583 58.999C83.583 45.4221 72.5769 34.4152 59 34.415ZM58.998 43.0195C67.8231 43.0195 74.9775 50.174 74.9775 58.999C74.9773 67.8239 67.8229 74.9775 58.998 74.9775C50.1732 74.9775 43.0188 67.8238 43.0186 58.999C43.0186 50.174 50.173 43.0196 58.998 43.0195ZM33.623 19.3838C32.5289 17.8631 30.4088 17.5167 28.8877 18.6104C23.3506 22.5931 20.3494 26.0231 16.459 32.6436C12.4285 39.5024 10.6106 44.4032 8.88184 52.9238C8.50927 54.7602 9.69595 56.5511 11.5322 56.9238C13.3687 57.2964 15.1596 56.1099 15.5322 54.2734C17.1278 46.4092 18.6984 42.2274 22.3096 36.082C25.7972 30.147 28.1922 27.4702 32.8496 24.1201C34.3707 23.0259 34.7172 20.905 33.623 19.3838ZM39.3701 12.8828C37.4966 12.883 35.9769 14.4019 35.9766 16.2754L35.9775 16.375C35.9776 18.2488 37.4963 19.7685 39.3701 19.7686C41.244 19.7685 42.7627 18.2489 42.7627 16.375L42.7637 16.2754C42.7633 14.4019 41.2437 12.883 39.3701 12.8828Z" fill="white"/>
</svg>
