<svg width="88" height="98" viewBox="0 0 88 98" fill="none" xmlns="http://www.w3.org/2000/svg">
<path d="M74.9414 95.0078C74.8021 96.2612 73.7425 97.2099 72.4814 97.21H15.5156C14.2547 97.2097 13.1959 96.261 13.0566 95.0078L5.11523 23.5322H82.8828L74.9414 95.0078ZM22.5166 31.8301L18.3809 32.2842C17.8377 32.344 17.4453 32.8327 17.5049 33.376L23.3145 86.334C23.3741 86.8774 23.8629 87.2704 24.4062 87.2109L28.541 86.7568C29.0845 86.6972 29.4775 86.2085 29.418 85.665L23.6084 32.707C23.5488 32.1637 23.0599 31.7707 22.5166 31.8301ZM65.335 31.8301C64.7915 31.7705 64.3028 32.1635 64.2432 32.707L58.4336 85.665C58.374 86.2085 58.7662 86.6972 59.3096 86.7568L63.4443 87.2109C63.9878 87.2706 64.4765 86.8775 64.5361 86.334L70.3457 33.376C70.4053 32.8325 70.0132 32.3438 69.4697 32.2842L65.335 31.8301ZM41.9189 31.7188C41.3725 31.7189 40.9299 32.1616 40.9297 32.708V85.9844C40.9297 86.531 41.3724 86.9744 41.9189 86.9746H46.0791C46.6258 86.9745 47.0693 86.5311 47.0693 85.9844V32.708C47.0691 32.1615 46.6256 31.7189 46.0791 31.7188H41.9189ZM48.125 0C48.6716 7.15816e-05 49.1151 0.443654 49.1152 0.990234V5.11621H82.1641C83.6389 5.11624 84.7865 6.39851 84.624 7.86426L84.3604 10.2354H87.0107C87.5572 10.2355 87.9998 10.6792 88 11.2256V19.4785C88 20.0047 87.5896 20.4343 87.0713 20.4658C87.0512 20.4646 87.0311 20.4629 87.0107 20.4629H0.990234C0.969643 20.4629 0.94899 20.4646 0.928711 20.4658C0.410675 20.434 4.79766e-05 20.0045 0 19.4785V11.2256C0.000227623 10.679 0.443633 10.2354 0.990234 10.2354H3.6377L3.37402 7.86426C3.21154 6.39862 4.35837 5.11649 5.83301 5.11621H38.8818V0.990234C38.882 0.443652 39.3255 6.78725e-05 39.8721 0H48.125Z" fill="white"/>
</svg>
